<svg id="Layer_1" data-name="Layer 1" xmlns="http://www.w3.org/2000/svg" viewBox="0 0 200 200"><defs><style>.cls-1{fill:#fed107;}</style></defs><path class="cls-1" d="M35.93,16.74A47.56,47.56,0,0,1,48.59,7.57,68.55,68.55,0,0,1,64.17,1.89,62.47,62.47,0,0,1,77.85,0q11.64,0,24.74,6.11A98.5,98.5,0,0,1,126.6,22a91.59,91.59,0,0,1,18.05,21.83q7.13,12.07,7.13,24a30.06,30.06,0,0,1-4.66,16.59A67.4,67.4,0,0,1,135.62,98a132.87,132.87,0,0,1-14.7,11.64q-7.86,5.39-14.26,10.63-6.1,4.95-11.35,8.73a85,85,0,0,0-9.17,7.57,34.09,34.09,0,0,0-6.26,8,20.52,20.52,0,0,0-2.32,10,36.28,36.28,0,0,0,6.25,20.09,110.25,110.25,0,0,0,11.41,14.61,5.08,5.08,0,0,1-.11,7l-2.17,2.25a5.12,5.12,0,0,1-6.81.46Q67.38,184.33,58.2,172.75,48.15,160.09,48.15,146.7a33.24,33.24,0,0,1,3.64-15.28,62.33,62.33,0,0,1,9.46-13.53,102.05,102.05,0,0,1,13-11.94Q81.33,100.43,88,95.47t13.25-9.6a97.5,97.5,0,0,0,11.49-9.46,44,44,0,0,0,8-10.34,25.36,25.36,0,0,0,3.06-12.51,21.31,21.31,0,0,0-2.92-11.06,30.31,30.31,0,0,0-7.56-8.59,33.61,33.61,0,0,0-10.63-5.53,39.73,39.73,0,0,0-12.08-1.89q-13.09,0-21.54,6.11a73.33,73.33,0,0,0-16,16.59h-.72a4.87,4.87,0,0,1-2-.39A58.62,58.62,0,0,1,44.81,46,54.64,54.64,0,0,1,38,41.48,23.33,23.33,0,0,1,32.73,36a11.59,11.59,0,0,1-2-6.55A17.58,17.58,0,0,1,35.93,16.74Zm53.7,127.35a13.59,13.59,0,0,1,19.76,0,14.89,14.89,0,0,1,0,20.48,13.59,13.59,0,0,1-19.76,0,14.89,14.89,0,0,1,0-20.48Zm55.84-47.9a13.59,13.59,0,0,1,19.76,0,14.9,14.9,0,0,1,0,20.49,13.59,13.59,0,0,1-19.76,0,14.9,14.9,0,0,1,0-20.49Zm-27.92,24a13.59,13.59,0,0,1,19.76,0,14.9,14.9,0,0,1,0,20.49,13.59,13.59,0,0,1-19.76,0,14.9,14.9,0,0,1,0-20.49Z"/></svg>